<svg width="32" height="32" viewBox="0 0 32 32" fill="none" xmlns="http://www.w3.org/2000/svg">
<path d="M27.125 17.047L16.7531 5.09384C16.6594 4.98568 16.5435 4.89894 16.4133 4.83949C16.283 4.78004 16.1416 4.74927 15.9984 4.74927C15.8553 4.74927 15.7138 4.78004 15.5836 4.83949C15.4534 4.89894 15.3375 4.98568 15.2437 5.09384L4.875 17.047C4.84367 17.083 4.82335 17.1273 4.81647 17.1745C4.80959 17.2218 4.81644 17.27 4.8362 17.3135C4.85596 17.3569 4.88779 17.3938 4.92791 17.4197C4.96804 17.4456 5.01475 17.4594 5.0625 17.4595H7.59375C7.7375 17.4595 7.875 17.397 7.97187 17.2876L14.8125 9.40321V27.0001C14.8125 27.1376 14.925 27.2501 15.0625 27.2501H16.9375C17.075 27.2501 17.1875 27.1376 17.1875 27.0001V9.40321L24.0281 17.2876C24.1219 17.397 24.2594 17.4595 24.4062 17.4595H26.9375C27.15 17.4595 27.2656 17.2095 27.125 17.047Z" fill="#0C6B97"/>
</svg>
